<?xml version="1.0" encoding="UTF-8"?>
<svg xmlns="http://www.w3.org/2000/svg" viewBox="0 0 449.81 449.81">
  <defs>
    <style>
      .cls-1, .cls-2, .cls-3, .cls-4, .cls-5, .cls-6, .cls-7 {
        stroke-miterlimit: 10;
      }

      .cls-1, .cls-5 {
        stroke: #fde2d1;
      }

      .cls-1, .cls-5, .cls-7 {
        stroke-width: 5px;
      }

      .cls-1, .cls-8, .cls-6, .cls-7 {
        fill: #fde2d1;
      }

      .cls-2, .cls-3, .cls-5 {
        fill: none;
      }

      .cls-2, .cls-3, .cls-6, .cls-7 {
        stroke: #663a2a;
      }

      .cls-2, .cls-6 {
        stroke-width: 3px;
      }

      .cls-3 {
        stroke-width: 4px;
      }

      .cls-4 {
        stroke: #a22b86;
      }

      .cls-4, .cls-9 {
        fill: #a22b86;
      }

      .cls-10 {
        fill: #663a2a;
      }

      .cls-11 {
        fill: #dadada;
      }

      .cls-12 {
        fill: #5986c5;
      }

      .cls-13 {
        fill: #6499cc;
      }

      .cls-14 {
        fill: #f18434;
      }
    </style>
  </defs>
  <g id="Calque_1" data-name="Calque 1">
    <circle class="cls-11" cx="224.9" cy="224.9" r="224.9"/>
    <path class="cls-6" d="M337.61,132.81c.09,.44,.69,3.61-1.42,6.06-1.66,1.93-3.95,2.19-5.54,2.38-1.71,.2-4.65,.53-6.33-1.34-1.81-2.02-.95-5.2-.65-6.32,.23-.86,1.99-6.89,6.76-7.08,3.58-.14,6.52,3.11,7.18,6.3Z"/>
    <path class="cls-6" d="M299.56,126.41c-.29,1.37-1.96,1.92-1.94,3.69,0,1.21,.79,1.59,.52,2.37-.41,1.17-2.62,1.62-4.26,1.37-1.61-.25-2.67-1.18-3.23-1.68-.48-.43-2.71-2.44-2.71-5.55,0-2.56,1.53-5.88,4.44-6.51,3.98-.86,7.68,3.91,7.18,6.3Z"/>
    <path class="cls-6" d="M295.81,146.88c2.19,1.49,4.34,4.65,3.35,7.48-.67,1.93-2.51,2.87-3.23,3.23-2.06,1.04-3.98,.8-5.16,.65-1.75-.22-3.96-.51-4.9-2.19-.78-1.4-.3-3.09-.11-3.73,.16-.54,.37-.99,1.53-2.72,1.58-2.34,2.36-3.51,2.92-3.79,2.27-1.14,5.23,.83,5.6,1.08Z"/>
    <path class="cls-6" d="M321.74,156.43c1.19,.73,3.09,2.44,2.71,4-.23,.93-1.19,1.47-2.71,2.32-.6,.34-1.37,.63-2.89,1.22-1.33,.51-2,.77-2.4,.78-1.09,.03-2.67-.42-3.36-1.69-.66-1.21-.16-2.53,.26-3.66,.36-.94,.99-2.61,2.71-3.5,2.57-1.32,5.29,.29,5.67,.53Z"/>
    <path class="cls-2" d="M332.58,227.52c-.22,8.6-2.33,61.39-42.19,90.97-51,37.85-139.29,19.53-170.32-41.42-21.57-42.37-11.65-97.8,22.45-131.23,24.49-24.01,54.07-29.45,66.19-30.97"/>
    <path class="cls-2" d="M231.64,119.04c-7.92,4.42-17.19-.73-17.81-1.09-2.06-1.18-3.54-2.53-4.52-3.56,.69-1.12,1.86-2.79,3.71-4.39,4.39-3.8,11.2-6.02,17.41-4.02,1.38,.44,6.51,2.09,6.99,5.57,.53,3.88-5.12,7.11-5.79,7.49Z"/>
    <path class="cls-2" d="M200.96,106.08c-2.55,9.6-13.15,13.85-13.87,14.13-2.38,.92-4.47,1.24-5.94,1.36-.32-1.33-.69-3.44-.51-6.07,.42-6.24,3.78-13.42,9.81-17.26,1.34-.85,6.32-4.02,9.23-2.06,3.25,2.18,1.49,9.09,1.28,9.9Z"/>
    <path class="cls-2" d="M203.89,136.3c-9.9,.8-17.44-7.78-17.94-8.36-1.66-1.94-2.66-3.8-3.27-5.14,1.14-.75,3.02-1.8,5.55-2.51,6.02-1.68,13.91-.92,19.54,3.49,1.25,.98,5.89,4.62,5.02,8.02-.97,3.79-8.07,4.44-8.91,4.5Z"/>
    <path class="cls-2" d="M178.36,144.79c-9.26,3.6-18.94-2.46-19.59-2.87-2.14-1.38-3.64-2.88-4.6-3.99,.88-1.04,2.37-2.59,4.6-3.99,5.29-3.34,13.07-4.86,19.72-2.25,1.48,.58,6.97,2.74,7.11,6.24,.15,3.91-6.46,6.56-7.25,6.87Z"/>
    <path class="cls-2" d="M167.71,115.42c.74,9.91-7.89,17.4-8.47,17.89-1.95,1.65-3.82,2.64-5.16,3.24-.74-1.15-1.78-3.03-2.47-5.57-1.65-6.03-.83-13.92,3.61-19.52,.99-1.24,4.65-5.86,8.05-4.97,3.78,.99,4.39,8.1,4.45,8.94Z"/>
    <path class="cls-2" d="M143.74,135.92c1.26,9.86-6.96,17.79-7.52,18.31-1.86,1.75-3.67,2.83-4.99,3.5-.8-1.11-1.94-2.93-2.76-5.43-1.96-5.94-1.56-13.86,2.58-19.68,.92-1.29,4.34-6.1,7.77-5.39,3.83,.79,4.81,7.86,4.91,8.69Z"/>
    <path class="cls-2" d="M121.69,160.5c4.82,7.33,.17,16.55-.15,17.17-1.07,2.05-2.34,3.56-3.31,4.56-1.15-.59-2.88-1.62-4.57-3.3-4.02-3.98-6.59-10.38-4.92-16.47,.37-1.35,1.75-6.38,5.19-7.05,3.84-.75,7.37,4.47,7.77,5.09Z"/>
    <path class="cls-2" d="M157.44,162.95c-8.83,3.05-17.44-3.56-18.01-4.01-1.9-1.51-3.2-3.09-4.03-4.25,.89-.99,2.37-2.44,4.53-3.72,5.12-3.02,12.44-4.09,18.46-1.09,1.34,.67,6.3,3.14,6.21,6.64-.1,3.91-6.41,6.17-7.16,6.43Z"/>
  </g>
  <g id="Calque_2" data-name="Calque 2">
    <path class="cls-7" d="M229.91,206.07c10,33-23.75,72.35-60.39,74.84-22.81,1.55-50.34-10.94-58.84-34.84-10.8-30.39,13.55-66.9,45.94-75.35,29.7-7.75,65.12,8.37,73.29,35.35Z"/>
    <path class="cls-7" d="M227.42,192.17c10,33-23.75,72.35-60.39,74.84-22.81,1.55-50.34-10.94-58.84-34.84-10.8-30.39,13.55-66.9,45.94-75.35,29.7-7.75,65.12,8.37,73.29,35.35Z"/>
    <path class="cls-8" d="M323.66,180.75c-2.16-1.5-4.84-1.59-7.67-1.17-24.75,3.72-63.03,47.06-53.47,62.13,5.28,8.33,24.62,7.14,37.13,1.13,11.55-5.55,16.78-14.96,19.98-20.72,8-14.4,12.01-35.83,4.04-41.38Z"/>
    <path class="cls-8" d="M272.32,132.56c1.71,3.57-5.63,9.81-11.61,16-22.24,23.02-36.71,56.9-28.13,67.61,3.14,3.92,9.39,4.74,9.03,7.23-.32,2.24-5.74,3.89-9.29,3.61-13.73-1.08-33.03-33.68-23.48-61.42,9.73-28.28,43.39-33.9,47.48-34.58,2.7-.45,14.13-2.36,16,1.55Z"/>
    <path class="cls-3" d="M278.26,237.85c4.84-1.65,26.09-9.48,36.9-31.74,5.7-11.74,6.17-22.71,5.94-28.9"/>
    <path class="cls-3" d="M289.61,248.68c3.66-1.68,26.67-12.7,33.81-38.45,3.95-14.25,1.22-26.46-.52-32.26"/>
    <path class="cls-9" d="M138,173.29c25.91-19.14,63.09-8.87,74.19,21.99,10.45,27.63-5.71,56.44-34.65,62.24-28.1,6.36-60.69-10.63-59.9-42.12,.35-16.07,11.05-31.36,25.76-37.71,15.57-6.99,36.33-4.83,47.17,9.35,13.6,18.01,6.33,44.59-16.19,50.5-13.57,3.9-30.29-5.8-30.78-20.59-.46-11.71,8.71-20.78,20.48-19.51,7.15,.64,11.55,7.11,10.41,13.86-.57,4.32-3.45,9.13-8.14,10.1-6.98,1.32-13.29-4.86-14.05-11.33,0,0,.95-.3,.95-.3,1.99,3.69,5.28,6.68,9.44,7.08,1.65,.11,2.99-.27,3.99-1.54,2.08-2.5,2.33-8.41-1.21-9.63-3.4-1.02-8.21,.84-9.98,3.9-4.23,7.69,2.49,15.2,10.51,15.16,4.6-.04,9.09-2.9,11.78-6.54,4.29-5.88,3.19-14.85-1.7-20.05-3.13-3.06-7.48-4.35-11.75-4.92-11.07-1.23-22.08,2.32-27.16,12.93-3.16,5.86-3.19,13.45-.41,19.41,2.91,6.48,8.75,10.88,15.27,13.73,22.29,9.05,49.14-2.69,50.09-28.48,.61-21.84-15.75-39.16-37.53-41.14-8.66-.92-17.68,.79-26.08,4.49l-.51-.86h0Z"/>
    <path class="cls-14" d="M314.42,179.79c-2.19,24.43-18.95,44.43-41.02,49.85-23.39,5.74-53.29-4.77-61.07-29.86-7.62-24.59,7.36-51.08,33.46-59.17,1.96-.61,10.27-3.53,21.14-2.05,0,0,0,0,0,0,4.11,1.03,6.27,1.05,6.71,1.41,2.36,1.97-8.08,12.25-6.33,21.57,1.33,7.09,9.67,13.45,16.99,13.82,6.5,.32,9.24-4.23,14.49-2.13,3.67,1.47,4.51,4.58,9.45,6.05,2.47,.73,4.69,.68,6.18,.52Z"/>
    <path class="cls-10" d="M266.41,132.47c-.18,.36-.15,.64-.13,.69-.02,.01,.06,.02-.05,0-.36-.05-1.1-.12-1.45-.17-46.74-4.32-74.82,46.12-45.27,83.25,14.22,18.48,36.98,21.36,57.44,11.68,19.95-9.2,34.38-28.31,39.76-49.49,0,0,2.58,2.38,2.58,2.38-1.93,.63-3.82,.95-5.79,1.04-6.08,.44-12.39-2.81-15.07-8.39,0,0,2.69,.86,2.69,.86-5.03,1.95-10.32,3.03-15.66,2.68-21.13-1.55-27.57-21.26-15.78-37.65,0,0-.95,4.23-.95,4.23-.99-3.62-1.68-7.22-2.3-11.12h0Zm5.99-6.62c2.16,5.67,4.16,11.8,5.8,17.77,0,0-1.66,1.73-1.66,1.73-10.49,9.59-8.46,23.69,5.7,27.93,5.68,1.66,12.13,.8,17.04-2.52,0,0,1.46-.98,1.46-.98,0,0,1.23,1.84,1.23,1.84,2.82,5.97,10.23,7.4,16.03,5.39,0,0,3.48-1.13,3.48-1.13-5.93,29.65-28.35,56.67-58.99,62.28-8.73,1.6-18.1,1.19-26.52-2-19.64-7.77-33-27.49-35.43-48.23-3.91-31.31,20.66-59.84,51.5-63.48,4.5-.6,9.09-.69,13.61-.26,2.26,.13,4.75,.66,6.74,1.65h0Z"/>
    <circle class="cls-4" cx="162.2" cy="211.6" r="7.69"/>
    <path class="cls-7" d="M304.27,284.81c2.79,34.22-23.74,62.88-54.14,66.97-38.57,5.19-75.73-30.21-72.05-68.52,2.87-29.88,30.02-55.58,62.58-55.79,32.03-.21,60.92,24.31,63.61,57.34Z"/>
    <path class="cls-7" d="M299.53,279.52c2.73,33.02-27.37,62.89-62.62,61.37-33.56-1.45-60.49-30.88-56.99-62.77,3.1-28.27,29.23-50.45,59.32-50.64,31.14-.2,57.91,23.21,60.29,52.04Z"/>
    <path class="cls-12" d="M288.65,267.59c6.01,17.99-.06,37.07-12,49.35-14.05,14.45-34.87,18.09-52.17,12.51-19.23-6.2-35.55-24.26-35.7-45.61-.19-27.3,26.11-49.28,52.5-49.16,19,.08,40.27,11.63,47.37,32.9Z"/>
    <path class="cls-1" d="M263.49,280.46c0,4.25-6.05,7.88-14.57,9.31-1.58,6.33-4.56,10.6-7.98,10.6s-6.4-4.25-7.98-10.57c-8.63-1.41-14.76-5.06-14.76-9.34s5.9-7.8,14.26-9.26c1.4-7.54,4.67-12.83,8.48-12.83s7.08,5.31,8.48,12.86c8.25,1.49,14.07,5.06,14.07,9.23Z"/>
    <ellipse class="cls-8" cx="252.34" cy="245.46" rx="9.04" ry="3.29" transform="translate(-99.32 229.28) rotate(-41.57)"/>
    <ellipse class="cls-8" cx="276.84" cy="281.62" rx="9.04" ry="3.29" transform="translate(-117.91 292.82) rotate(-47.12)"/>
    <ellipse class="cls-8" cx="204.06" cy="286.37" rx="9.04" ry="3.29" transform="translate(-144.63 241.01) rotate(-47.12)"/>
    <ellipse class="cls-8" cx="226.9" cy="317.81" rx="9.04" ry="3.29" transform="translate(-160.38 267.79) rotate(-47.12)"/>
    <ellipse class="cls-8" cx="265.03" cy="307.37" rx="3.29" ry="9.04" transform="translate(-139.71 277.43) rotate(-45)"/>
    <ellipse class="cls-8" cx="214.55" cy="257.43" rx="3.29" ry="9.04" transform="translate(-119.19 227.11) rotate(-45)"/>
    <path class="cls-5" d="M250.9,155.52c-3.72-3.87-8.73-5.39-12.77-3.87-3.81,1.43-6.95,5.61-6.58,9.29,.73,7.23,14.96,11.65,32.9,17.03,21.24,6.37,31.48,7.53,33.44,14.46,.92,3.25-.18,7.16-2.48,9.15-1.42,1.24-5.11,3.3-18.97-1.94-9.27-3.5-13.84-6.78-21.73-11.26-16.15-9.18-27.74-15.77-33.62-11.58-3.31,2.36-4.29,7.77-3.1,11.61,1.02,3.28,4.06,6.78,22.95,13.06,17.85,5.94,26.84,6.69,28.75,12.97,.12,.39,1.08,3.71-.55,5.9-2.61,3.5-12.07,4.41-44.18-9.86"/>
    <g>
      <path class="cls-9" d="M85.77,124.03c1.45,1.54,2.18,2.32,3.63,3.86-4.59,5.94-6.8,9.07-11.02,15.63-6.4-5.61-9.59-8.42-15.99-14.04,2.04-3.18,3.09-4.74,5.22-7.79,4.67,4.47,7.01,6.7,11.68,11.16,2.53-3.63,3.83-5.39,6.48-8.82Z"/>
      <path class="cls-9" d="M100.97,106.67c1.26,1.68,1.89,2.52,3.15,4.19-5.38,5.56-7.98,8.51-12.96,14.79-5.84-6.39-8.77-9.58-14.61-15.97,5.53-6.95,8.41-10.23,14.36-16.38,1.22,1.62,1.83,2.43,3.05,4.05-3.49,3.61-5.2,5.48-8.55,9.37,.82,.96,1.22,1.45,2.04,2.41,2.67-3.1,4.02-4.6,6.78-7.52,1.19,1.54,1.78,2.32,2.97,3.86-2.7,2.85-4.03,4.32-6.63,7.35,.92,1.09,1.38,1.63,2.3,2.72,3.17-3.68,4.79-5.46,8.1-8.88Z"/>
      <path class="cls-9" d="M100.64,105.43c1.83-2.52,2.77-3.77,4.68-6.21,1.47,1.03,3.13,.66,5.02-1.06,1.47-1.34,1.97-2.37,1.48-3.13-.26-.4-.63-.56-1.12-.48-.49,.08-1.24,.44-2.24,1.07-3.8,2.47-6.49,3.8-8.14,3.78-1.65-.02-2.96-.66-3.92-1.96-1.23-1.67-1.57-3.77-.95-6.3,.62-2.53,2.32-5.12,5.09-7.65,4.2-3.82,8.04-4.61,11.27-2.58-1.76,2.31-2.62,3.49-4.31,5.86-1.33-.79-2.83-.46-4.46,1.03-1.35,1.23-1.76,2.24-1.24,3,.23,.34,.56,.46,.99,.37,.43-.09,1.13-.45,2.11-1.07,2.7-1.7,4.68-2.75,5.92-3.24s2.48-.57,3.7-.22c1.22,.35,2.19,1.15,2.92,2.38,1.15,1.95,1.27,4.17,.42,6.69-.85,2.52-2.5,4.84-4.97,7.1-4.52,4.13-8.5,5.1-12.23,2.61Z"/>
      <path class="cls-9" d="M130.73,88.01c-4.13-8.01-6.2-12.02-10.34-20.03,3.4-2.4,5.12-3.55,8.6-5.74,3.78-2.38,7.11-2.99,9.86-1.94,2.75,1.04,4.64,3.01,5.74,5.79,1.25,3.17,1.29,6.27,.22,9.3-1.07,3.03-3.03,5.38-5.94,7.2-3.3,2.06-4.93,3.15-8.15,5.42Zm3.92-8.86c.66-.43,.99-.64,1.66-1.06,1.06-.66,1.72-1.72,2-3.19s.05-3.09-.73-4.86c-.66-1.52-1.57-2.62-2.74-3.31-1.17-.68-2.41-.62-3.69,.19-.7,.44-1.05,.67-1.75,1.12,2.1,4.45,3.15,6.67,5.25,11.12Z"/>
      <path class="cls-9" d="M166.01,62.87c.61,2.12,.91,3.18,1.52,5.3-6.49,2.53-9.7,3.97-16,7.21-3.24-8.56-4.85-12.84-8.09-21.39,6.98-3.59,10.54-5.19,17.73-7.99,.59,2.05,.88,3.07,1.47,5.12-4.22,1.64-6.31,2.53-10.45,4.45,.43,1.26,.64,1.89,1.07,3.15,3.3-1.53,4.97-2.25,8.32-3.6,.58,1.96,.87,2.94,1.46,4.9-3.27,1.32-4.9,2.02-8.13,3.52,.48,1.42,.73,2.13,1.21,3.55,3.93-1.82,5.91-2.66,9.9-4.22Zm-18.35-15.69c2.7-2.94,4.09-4.38,6.93-7.19,.91,1.04,1.37,1.56,2.26,2.61-3.08,2.46-4.58,3.73-7.54,6.34-.66-.7-.99-1.05-1.66-1.75Z"/>
      <path class="cls-9" d="M184.41,56.73c.43,2.24,.65,3.36,1.09,5.6-6.19,1.62-9.26,2.59-15.33,4.84-2.43-8.91-3.65-13.37-6.08-22.28,2.95-1.09,4.43-1.6,7.4-2.56,1.62,6.8,2.43,10.2,4.04,17,3.54-1.14,5.31-1.66,8.89-2.6Z"/>
      <path class="cls-9" d="M191.23,37.17c1.37,9.21,2.06,13.82,3.43,23.03-2.73,.55-4.1,.86-6.81,1.53-1.67-9.15-2.5-13.72-4.17-22.87,3.01-.74,4.52-1.08,7.55-1.69Z"/>
      <path class="cls-9" d="M210.23,48.89c2.64-.1,3.95-.12,6.59-.12-.19,2.88-1.13,5.13-2.8,6.79-1.67,1.66-3.74,2.61-6.27,2.91-3.04,.36-5.59-.31-7.73-2.08-2.14-1.77-3.5-4.45-3.99-8.1-.49-3.62,.05-6.72,1.71-9.27,1.66-2.55,4.29-4.09,7.82-4.51,3.29-.39,5.9,.25,7.75,1.83s2.92,3.79,3.27,6.61c-2.74,.3-4.11,.48-6.84,.89-.11-1.56-.5-2.66-1.18-3.28-.68-.63-1.44-.9-2.28-.8-2.35,.27-3.3,2.7-2.84,7.22,.26,2.53,.72,4.2,1.39,5.04,.67,.83,1.52,1.18,2.56,1.06,1.86-.22,2.81-1.6,2.85-4.19Z"/>
      <path class="cls-9" d="M236.91,51.77c-.11,2.23-.16,3.34-.26,5.57-6.77-.43-10.17-.47-16.94-.18-.29-9.34-.44-14.02-.73-23.36,7.51-.32,11.27-.28,18.77,.2-.1,2.15-.15,3.23-.25,5.39-4.4-.28-6.6-.35-11.01-.35,0,1.36,0,2.03,0,3.39,3.51,0,5.26,.05,8.77,.23-.08,2.07-.12,3.11-.2,5.18-3.43-.18-5.14-.22-8.57-.22,0,1.53,0,2.29,0,3.82,4.17,0,6.26,.07,10.42,.33Z"/>
      <path class="cls-9" d="M237.4,50.62c2.67-.3,4.01-.43,6.7-.62,.41,1.94,1.74,3.02,4.02,3.32,1.77,.24,2.71-.1,2.81-1.05,.06-.5-.11-.92-.49-1.25-.38-.34-1.1-.69-2.15-1.05-4.01-1.32-6.59-2.56-7.69-3.92-1.1-1.36-1.62-2.89-1.53-4.6,.12-2.2,1.09-3.97,2.95-5.27s4.49-1.78,7.83-1.34c5.06,.67,8.17,3.2,9.21,7.28-2.55,.24-3.82,.39-6.35,.72-.46-1.65-1.67-2.62-3.64-2.88-1.63-.21-2.49,.18-2.57,1.15-.04,.43,.12,.79,.46,1.07,.34,.28,1.03,.59,2.05,.95,2.82,.97,4.78,1.82,5.92,2.47,1.14,.65,2.03,1.6,2.67,2.84,.64,1.24,.85,2.6,.63,4.07-.34,2.33-1.55,4.03-3.58,5.16-2.04,1.13-4.51,1.46-7.5,1.07-5.45-.71-8.68-3.28-9.77-8.11Z"/>
      <path class="cls-9" d="M267.03,55.3c2.69,.19,4.03,.31,6.73,.61,.15,1.99,1.33,3.3,3.54,4.02,1.73,.56,2.7,.4,2.93-.52,.12-.48,.01-.93-.32-1.33-.34-.4-1-.88-1.99-1.43-3.8-2.04-6.2-3.73-7.11-5.28-.91-1.55-1.22-3.15-.9-4.82,.41-2.15,1.61-3.73,3.63-4.67,2.02-.95,4.7-.94,7.95,.11,4.94,1.59,7.68,4.67,8.18,8.89-2.57-.23-3.85-.32-6.41-.46-.23-1.71-1.31-2.9-3.23-3.51-1.59-.51-2.49-.28-2.7,.66-.09,.42,.01,.8,.31,1.14s.94,.77,1.91,1.31c2.67,1.47,4.5,2.68,5.55,3.53,1.04,.85,1.81,1.96,2.28,3.3,.47,1.34,.49,2.72,.09,4.14-.64,2.24-2.07,3.7-4.25,4.43-2.17,.74-4.68,.61-7.59-.32-5.32-1.7-8.17-4.82-8.61-9.79Z"/>
      <path class="cls-9" d="M313.56,56.16c-2.25,5.61-3.37,8.42-5.62,14.03-1.07,2.66-2.62,4.13-4.64,4.48-2.02,.35-4.26-.1-6.79-1.3-2.66-1.27-4.62-2.78-5.9-4.64s-1.56-4.09-.77-6.72c1.79-5.99,2.69-8.98,4.49-14.97,2.97,1.21,4.45,1.85,7.39,3.19-1.88,5.59-2.83,8.39-4.71,13.98-.35,1.04-.38,1.9-.11,2.58,.28,.68,.9,1.25,1.85,1.71,.8,.38,1.52,.53,2.15,.44s1.08-.32,1.34-.7c.26-.38,.62-1.19,1.08-2.44,1.86-5.03,2.79-7.54,4.65-12.57,2.25,1.13,3.37,1.72,5.59,2.94Z"/>
      <path class="cls-9" d="M323.48,78.53c2.27,1.73,3.39,2.61,5.61,4.44-1.58,2.23-3.49,3.41-5.71,3.63-2.23,.21-4.44-.43-6.71-1.91-2.73-1.78-4.54-4.06-5.46-6.96-.92-2.9-.74-6.01,.65-9.34,1.37-3.3,3.35-5.47,6-6.44,2.64-.96,5.61-.44,8.78,1.62,2.96,1.93,4.84,4.24,5.62,6.81,.78,2.56,.6,5.12-.5,7.66-2.47-1.65-3.71-2.44-6.21-3.98,.67-1.35,.88-2.52,.63-3.5-.26-.98-.77-1.72-1.53-2.21-2.11-1.38-4.1-.03-5.94,3.97-1.03,2.25-1.46,3.94-1.31,5.07,.15,1.14,.69,2,1.63,2.61,1.67,1.09,3.15,.61,4.47-1.48Z"/>
      <path class="cls-9" d="M344.22,106.3c-2.48-2.4-3.75-3.57-6.3-5.83,.74-3.83,1.09-5.75,1.73-9.63-.76-.65-1.15-.97-1.92-1.61-1.77,2.92-2.65,4.38-4.41,7.31-2.35-1.94-3.53-2.88-5.93-4.71,4.36-7.85,6.54-11.77,10.9-19.62,4.52,3.44,6.74,5.25,11.09,9.07,2.4,2.11,3.91,4.31,4.52,6.51,.61,2.2,.34,4.1-.79,5.7-.73,1.04-1.61,1.74-2.62,2.1-1.01,.37-2.42,.2-4.22-.46-.75,4.5-1.16,6.74-2.06,11.16Zm-4.01-21.16c1.07,.88,1.6,1.33,2.65,2.24,.78,.67,1.49,1.06,2.16,1.17,.66,.11,1.18-.12,1.56-.7,.77-1.19,.36-2.51-1.25-3.9-1.16-1-1.74-1.49-2.92-2.46-.88,1.46-1.32,2.19-2.21,3.65Z"/>
      <path class="cls-9" d="M363.4,119.55c-1.38,1.55-2.07,2.32-3.44,3.87-5.05-6.17-7.68-9.08-13.1-14.53,5.2-7.11,7.8-10.66,13-17.77,6.01,6.04,8.92,9.26,14.52,16.1-1.33,1.5-2,2.24-3.33,3.74-3.28-4.01-4.96-5.94-8.39-9.67l-1.97,2.49c2.73,2.97,4.08,4.5,6.71,7.65-1.27,1.46-1.9,2.18-3.16,3.64-2.58-3.08-3.89-4.58-6.56-7.48-.89,1.12-1.33,1.68-2.22,2.81,3.25,3.53,4.84,5.36,7.94,9.16Zm3.73-26.71c3.55,1.72,5.33,2.64,8.87,4.61-.39,1.44-.58,2.15-.98,3.58-3.38-2.38-5.08-3.51-8.49-5.65,.24-1.01,.36-1.52,.6-2.54Z"/>
      <path class="cls-9" d="M364.44,119.12c2.26,2.09,3.39,3.16,5.61,5.38-.8,1.78-.39,3.75,1.22,5.99,1.25,1.74,2.19,2.33,2.82,1.72,.33-.32,.45-.77,.34-1.36-.11-.59-.46-1.49-1.08-2.68-2.38-4.52-3.68-7.68-3.75-9.64-.07-1.96,.41-3.53,1.48-4.71,1.37-1.51,3.16-1.98,5.37-1.31,2.22,.67,4.56,2.62,6.92,5.9,3.59,4.98,4.56,9.66,3.02,13.62-2.15-2.13-3.24-3.17-5.42-5.18,.6-1.62,.21-3.43-1.18-5.36-1.15-1.6-2.06-2.06-2.68-1.42-.28,.29-.37,.68-.26,1.19s.46,1.34,1.06,2.51c1.65,3.21,2.7,5.6,3.21,7.1s.67,3.01,.45,4.5c-.21,1.49-.84,2.68-1.86,3.58-1.62,1.42-3.56,1.57-5.81,.57-2.25-1-4.4-2.98-6.52-5.9-3.87-5.35-4.9-10.01-2.95-14.51Z"/>
    </g>
    <g>
      <path class="cls-13" d="M59.4,315.51c3.85-3.56,5.77-5.35,9.62-8.91,.18-.16,.39-.21,.65-.13,.25,.07,.47,.24,.64,.51,.17,.26,.26,.55,.26,.86,0,.31-.09,.55-.26,.72-3.3,3.13-4.95,4.69-8.25,7.82,1.92,2.9,2.9,4.32,4.9,7.11,.2,.27,.3,.57,.33,.9,.02,.32-.05,.57-.22,.75s-.39,.23-.66,.16-.5-.25-.69-.53c-2.58-3.6-3.84-5.45-6.3-9.25Z"/>
      <path class="cls-13" d="M82.2,323.48c.55,.69,.83,1.04,1.38,1.72,.19,.24,.3,.52,.32,.83s-.05,.56-.21,.74c-.05,.06-.11,.11-.17,.14-2.18,1.2-3.28,1.78-5.49,2.93-.41,.2-.79,.07-1.15-.38-.21-.27-.33-.56-.34-.88-.02-.32,.07-.58,.25-.78,1.6-1.8,2.41-2.7,4.01-4.5,.19-.21,.41-.31,.67-.29,.26,.02,.5,.17,.72,.46Z"/>
      <path class="cls-13" d="M95.37,341.23c-2.14-2.2-3.2-3.33-5.28-5.64-1.08,1.4-1.63,2.11-2.71,3.51,.92,1.02,1.38,1.52,2.31,2.51,.21,.22,.33,.48,.37,.79,.04,.31,0,.56-.16,.76-.16,.21-.36,.31-.62,.3-.26-.01-.49-.13-.71-.36-.94-1-1.4-1.51-2.33-2.54-1.09,1.42-1.64,2.12-2.73,3.54,2.2,2.43,3.31,3.62,5.57,5.94,.21,.22,.35,.48,.4,.79,.05,.31,0,.56-.14,.77-.15,.21-.35,.3-.62,.28-.27-.02-.51-.15-.73-.37-2.91-2.99-4.34-4.53-7.15-7.71,3.56-4.52,5.35-6.78,8.91-11.3,2.63,2.98,3.97,4.42,6.69,7.22,.21,.21,.33,.47,.38,.78,.04,.31,0,.56-.15,.77-.14,.2-.34,.3-.6,.29-.26,0-.49-.12-.7-.34Zm1.32-6.79c.14,.06,.26,.15,.37,.27,.21,.22,.32,.48,.34,.77,.02,.3-.04,.54-.18,.73-.23,.32-.53,.4-.9,.24-1.43-.63-2.15-.95-3.59-1.63-.14-.07-.27-.16-.38-.28-.21-.23-.32-.49-.34-.79-.02-.3,.05-.54,.19-.73,.24-.31,.54-.38,.91-.21,1.43,.67,2.14,1,3.56,1.62Z"/>
      <path class="cls-13" d="M92.56,356.08c3.06-4.53,4.59-6.79,7.65-11.31,.14-.21,.34-.31,.59-.32,.25,0,.48,.09,.69,.29,.21,.2,.34,.45,.39,.74,.05,.3,0,.55-.13,.76-2.61,3.95-3.92,5.92-6.54,9.87,2.31,2.19,3.47,3.25,5.83,5.33,.23,.2,.38,.46,.46,.76,.07,.3,.05,.56-.09,.78-.13,.22-.33,.33-.6,.34-.26,0-.51-.09-.75-.3-3.05-2.68-4.55-4.07-7.51-6.94Z"/>
      <path class="cls-13" d="M118.71,361.8c-2.34-1.75-3.5-2.65-5.79-4.51-.9,1.58-1.34,2.38-2.24,3.96,1.01,.82,1.52,1.22,2.53,2.02,.23,.18,.38,.41,.45,.7,.08,.29,.06,.55-.06,.77-.13,.24-.32,.37-.57,.41-.25,.04-.5-.04-.73-.22-1.03-.8-1.54-1.21-2.55-2.03-.9,1.6-1.35,2.39-2.26,3.99,2.42,1.96,3.64,2.91,6.1,4.75,.23,.18,.4,.41,.48,.7,.09,.29,.07,.55-.05,.78s-.31,.36-.57,.39c-.26,.03-.51-.05-.76-.23-3.17-2.37-4.74-3.61-7.84-6.17,2.96-5.11,4.43-7.67,7.39-12.78,2.9,2.4,4.37,3.56,7.34,5.78,.23,.17,.38,.4,.46,.69,.08,.29,.06,.55-.06,.79-.12,.23-.3,.36-.55,.4-.25,.04-.5-.02-.72-.2Zm.51-6.9c.14,.04,.27,.1,.39,.19,.23,.18,.37,.41,.42,.69,.05,.29,.02,.54-.09,.75-.19,.36-.47,.49-.85,.4-1.47-.34-2.2-.52-3.68-.9-.14-.04-.28-.11-.4-.2-.23-.18-.37-.42-.42-.71-.05-.29-.01-.54,.11-.75,.2-.35,.48-.47,.86-.38,1.46,.38,2.2,.56,3.65,.91Z"/>
      <path class="cls-13" d="M129.1,366.79c1.12,.73,1.68,1.09,2.81,1.8,.24,.15,.4,.36,.49,.63,.09,.27,.08,.53-.02,.77-.11,.26-.29,.41-.55,.47-.25,.06-.49,.02-.7-.11-1.08-.68-1.63-1.03-2.7-1.73-.26-.18-.55-.2-.86-.08-1.53,.61-2.3,.91-3.85,1.48-.32,.1-.58,.37-.79,.81-.91,1.89-1.36,2.83-2.26,4.71-.12,.24-.13,.51-.04,.79,.09,.29,.26,.51,.51,.68,1.44,.98,2.17,1.46,3.62,2.4,.24,.16,.49,.2,.74,.15,.25-.06,.43-.2,.54-.44,.34-.75,.5-1.13,.84-1.88-.73-.47-1.1-.7-1.83-1.18-.25-.16-.42-.39-.51-.66-.09-.28-.08-.53,.03-.77,.11-.24,.29-.39,.53-.44,.24-.06,.49,0,.74,.16,1.42,.93,2.14,1.38,3.57,2.28-.63,1.45-.95,2.18-1.58,3.63-.31,.72-.85,1.17-1.6,1.35-.75,.18-1.51,.03-2.25-.45-1.47-.95-2.2-1.43-3.65-2.41-.74-.5-1.26-1.19-1.54-2.05-.28-.86-.25-1.64,.1-2.34,.92-1.87,1.38-2.81,2.3-4.69,.41-.84,.99-1.39,1.72-1.65,1.62-.58,2.43-.87,4.03-1.49,.3-.12,.64-.16,1.05-.12,.4,.04,.78,.18,1.12,.41Z"/>
      <path class="cls-13" d="M131.51,384.23c3.45-3.96,5.14-5.98,8.44-10.07,.31-.36,.69-.42,1.13-.18,.43,.24,.63,.57,.6,1.01-.51,5.72-.72,8.59-1.05,14.36,0,.11-.02,.21-.05,.29-.09,.25-.26,.42-.5,.5-.24,.08-.48,.07-.71-.05-.49-.25-.72-.63-.69-1.14,.07-1.13,.1-1.69,.18-2.82-1.68-.89-2.51-1.35-4.17-2.29-.73,.85-1.09,1.28-1.82,2.12-.07,.1-.2,.15-.4,.16-.2,0-.4-.04-.59-.15-.27-.16-.46-.37-.56-.65-.1-.28-.1-.54,0-.79,.04-.1,.11-.2,.19-.29Zm7.97-6.12c-1.39,1.71-2.1,2.56-3.52,4.24,1.22,.69,1.83,1.02,3.06,1.68,.17-2.37,.26-3.56,.46-5.92Z"/>
      <path class="cls-13" d="M158.16,383.26c-1.6,5.49-2.4,8.23-4,13.72-1.02-.42-1.54-.64-2.56-1.08-.67-5.42-.95-8.12-1.41-13.52-1.36,4.12-2.04,6.19-3.39,10.31-.08,.25-.25,.43-.49,.52-.24,.09-.49,.08-.76-.05-.26-.12-.45-.32-.58-.58-.12-.27-.14-.52-.06-.78,1.83-5.39,2.74-8.09,4.57-13.49,.93,.45,1.4,.67,2.33,1.1,.45,5.37,.73,8.06,1.39,13.46,1.25-4.15,1.87-6.23,3.12-10.38,.08-.26,.23-.44,.47-.55s.48-.11,.73,0c.25,.1,.43,.28,.55,.54,.12,.26,.14,.52,.06,.78Z"/>
      <path class="cls-13" d="M164.37,398.8c1.39,.48,2.08,.71,3.47,1.17,.27,.09,.48,.25,.63,.5s.2,.5,.14,.76c-.06,.26-.21,.46-.45,.58-.24,.12-.49,.14-.76,.05-1.45-.47-2.18-.72-3.62-1.22-.46-.16-.9-.47-1.32-.93-.42-.46-.68-.9-.78-1.32-.45-2-.67-3-1.09-5-.13-.71-.11-1.38,.06-2.01,.19-.7,.49-1.25,.9-1.66,1.3-1.32,1.95-1.99,3.22-3.34,.3-.31,.7-.54,1.2-.68s.94-.15,1.34,0c1.43,.5,2.15,.74,3.59,1.21,.25,.08,.45,.24,.58,.49,.13,.25,.17,.5,.12,.75-.06,.26-.2,.46-.42,.6s-.46,.16-.71,.08c-1.4-.45-2.09-.69-3.49-1.17-.29-.1-.57,0-.84,.28-1.2,1.27-1.81,1.9-3.03,3.15-.24,.25-.42,.58-.52,.99-.11,.44-.13,.86-.04,1.26,.4,1.82,.6,2.73,1.03,4.55,.09,.46,.35,.77,.79,.92Z"/>
      <path class="cls-13" d="M183.99,392.6c-2.63-.62-3.94-.95-6.56-1.68-.37,1.86-.55,2.79-.91,4.65,1.15,.32,1.73,.47,2.88,.77,.26,.07,.46,.22,.61,.46,.15,.24,.21,.49,.16,.75-.05,.27-.18,.48-.4,.63-.22,.14-.46,.18-.73,.11-1.16-.3-1.74-.46-2.9-.78-.37,1.87-.55,2.81-.92,4.69,2.76,.76,4.14,1.12,6.91,1.77,.26,.06,.48,.21,.64,.44,.16,.23,.22,.48,.18,.75-.04,.27-.18,.47-.41,.61-.23,.14-.48,.18-.76,.12-3.57-.84-5.35-1.3-8.9-2.33,1.24-6.03,1.85-9.05,3.09-15.08,3.32,.96,4.99,1.4,8.34,2.18,.26,.06,.46,.21,.62,.45s.21,.49,.17,.76c-.04,.26-.17,.46-.39,.61-.22,.15-.46,.19-.72,.13Z"/>
      <path class="cls-13" d="M204.15,394.04c1.48,.16,2.22,.23,3.69,.36,.48,.05,.94,.25,1.38,.6,.44,.35,.76,.76,.95,1.23,.67,1.62,1.01,2.43,1.7,4.04,.33,.73,.48,1.48,.45,2.25-.03,.72-.25,1.44-.67,2.17-.84,1.5-1.27,2.25-2.14,3.74-.28,.48-.66,.85-1.15,1.11-.49,.26-1.03,.37-1.62,.32-1.53-.13-2.29-.21-3.81-.37-.28-.03-.5-.15-.68-.37-.18-.22-.26-.45-.23-.72,.02-.27,.14-.49,.35-.67s.45-.25,.72-.22c.41,.04,.62,.07,1.04,.11,.33-4.6,.5-6.9,.84-11.51-.39-.04-.58-.06-.96-.1-.26-.03-.48-.15-.64-.37-.17-.22-.24-.46-.22-.73,.02-.26,.13-.48,.33-.66,.2-.17,.43-.25,.68-.22Zm2.7,2.26c-.3,4.62-.45,6.92-.74,11.54,.28,.02,.42,.04,.69,.06,.44,.04,.78-.15,1.02-.56,.87-1.47,1.3-2.22,2.14-3.7,.26-.49,.41-.9,.42-1.24,.02-.43-.06-.84-.23-1.23-.71-1.65-1.06-2.48-1.74-4.13-.18-.41-.5-.64-.95-.68-.25-.02-.37-.03-.62-.05Z"/>
      <path class="cls-13" d="M216.73,407.5c.1-4.63,.14-6.94,.24-11.57,0-.27,.1-.51,.29-.7,.19-.19,.41-.29,.66-.28,.25,0,.47,.11,.65,.31,.18,.2,.27,.43,.27,.69-.06,4.64-.09,6.96-.14,11.6,0,.26,.09,.48,.29,.68,.19,.19,.43,.29,.69,.3,1.63,.02,2.44,.02,4.06,0,.28,0,.51-.1,.7-.29,.19-.19,.28-.42,.28-.68-.06-4.63-.09-6.94-.14-11.57,0-.28,.09-.52,.26-.72,.18-.2,.4-.3,.66-.31,.26,0,.48,.09,.67,.27,.19,.19,.28,.42,.29,.71,.09,4.62,.14,6.93,.24,11.55,.02,.81-.26,1.51-.84,2.11-.58,.6-1.28,.9-2.1,.91-1.64,.02-2.46,.02-4.1,0-.82,0-1.53-.31-2.1-.9-.57-.59-.85-1.29-.84-2.1Z"/>
      <path class="cls-13" d="M246.01,407.82c-.58-5.78-.87-8.66-1.44-14.44,3.38-.48,5.07-.76,8.43-1.42,.24-.05,.47,0,.69,.16,.21,.16,.34,.36,.38,.62,.04,.27-.02,.52-.18,.75-.16,.23-.36,.37-.62,.42-2.64,.51-3.97,.74-6.62,1.15,.13,1.22,.2,1.83,.33,3.06,1.93-.3,2.89-.46,4.82-.81,.26-.05,.5,0,.71,.16,.21,.15,.33,.37,.37,.63,.04,.27-.03,.52-.19,.74-.16,.22-.37,.36-.64,.41-1.94,.35-2.91,.52-4.86,.82,.32,2.98,.48,4.47,.81,7.45,.03,.27-.04,.51-.21,.73-.17,.22-.4,.35-.67,.39-.28,.04-.52-.02-.73-.18s-.33-.38-.36-.65Z"/>
      <path class="cls-13" d="M260.53,404.75c.72-5.63,1.04-8.45,1.59-14.08,.06-.51,.33-.83,.8-.95,.46-.12,.78,0,.98,.38,2.47,4.93,3.74,7.38,6.38,12.23,.05,.09,.08,.18,.1,.27,.05,.26,0,.52-.14,.76s-.34,.39-.58,.46c-.51,.15-.88,0-1.11-.42-.51-.95-.77-1.43-1.27-2.38-1.77,.48-2.66,.71-4.43,1.15-.14,1.2-.22,1.8-.37,3,0,.13-.08,.27-.24,.42-.15,.15-.33,.25-.54,.3-.29,.07-.55,.03-.77-.12-.22-.15-.35-.36-.4-.63-.02-.11-.02-.24,0-.37Zm3.19-10.59c-.24,2.36-.37,3.54-.64,5.91,1.3-.32,1.95-.49,3.25-.84-1.06-2.02-1.58-3.03-2.61-5.07Z"/>
      <path class="cls-13" d="M272.62,386.89c2.95-.96,4.41-1.47,7.33-2.57,.24-.09,.47-.08,.7,.04,.23,.12,.38,.3,.45,.55,.07,.26,.04,.52-.09,.78-.13,.26-.32,.43-.56,.53-1.1,.41-1.65,.62-2.75,1.01,1.12,4.43,1.68,6.65,2.79,11.09,1.16-.41,1.74-.63,2.89-1.06,.27-.1,.51-.09,.75,.02,.23,.11,.39,.3,.46,.56,.07,.26,.03,.52-.11,.77-.14,.25-.34,.43-.6,.53-3.11,1.17-4.68,1.72-7.82,2.74-.27,.09-.52,.07-.75-.05-.23-.12-.37-.32-.43-.58s-.02-.52,.13-.76c.15-.24,.35-.41,.62-.5,1.18-.38,1.77-.58,2.95-.99-1.08-4.45-1.62-6.67-2.7-11.12-1.12,.39-1.69,.57-2.81,.94-.25,.08-.49,.06-.71-.07-.22-.13-.36-.32-.42-.58-.06-.27-.02-.53,.11-.77,.14-.24,.33-.41,.58-.49Z"/>
      <path class="cls-13" d="M285.74,384.85c-.29-1-.44-1.5-.73-2.5,3.61-1.49,5.4-2.29,8.96-4,.34,.99,.5,1.49,.84,2.48,.09,.25,.07,.51-.05,.77-.12,.26-.3,.45-.54,.57-.25,.12-.49,.13-.74,.03-.24-.1-.4-.27-.48-.51-.09-.27-.13-.4-.22-.66-.72,.34-1.08,.5-1.81,.83,1.5,4.69,2.25,7.04,3.75,11.74,.08,.25,.06,.51-.07,.78-.13,.26-.32,.45-.58,.57-.27,.12-.53,.13-.77,.04-.24-.1-.41-.27-.48-.53-1.46-4.71-2.19-7.07-3.65-11.78-.73,.32-1.09,.48-1.82,.79,.08,.26,.12,.39,.19,.65,.08,.26,.06,.51-.07,.77-.12,.25-.31,.43-.56,.54-.25,.11-.49,.11-.72,0-.23-.11-.38-.29-.46-.55Z"/>
      <path class="cls-13" d="M316.6,372.27c-.08-.18-.12-.26-.2-.44-1.18-.55-1.77-.83-2.93-1.4,1.87,4.18,2.8,6.27,4.67,10.45,.11,.24,.11,.5,.01,.78-.1,.28-.28,.5-.53,.66-.25,.16-.5,.21-.75,.14-.25-.06-.43-.21-.53-.45-2.25-5.16-3.38-7.74-5.63-12.9,.88-.55,1.32-.82,2.19-1.38,1.39,.71,2.09,1.05,3.5,1.73,.3-1.8,.44-2.71,.7-4.51,.85-.58,1.27-.87,2.11-1.46,2.47,5.02,3.7,7.53,6.16,12.55,.12,.23,.12,.5,.03,.79s-.27,.52-.52,.69c-.24,.17-.49,.23-.75,.18-.26-.05-.44-.19-.55-.42-1.97-4.1-2.95-6.14-4.91-10.24-.22,1.44-.33,2.16-.57,3.61,.09,.19,.13,.29,.22,.48,.11,.23,.12,.49,.03,.77-.09,.28-.26,.5-.49,.66-.24,.16-.48,.21-.73,.15-.25-.06-.42-.21-.53-.44Z"/>
      <path class="cls-13" d="M329.34,372.74c-.96-5.61-1.49-8.39-2.62-13.92-.09-.51,.07-.93,.49-1.25,.4-.32,.75-.34,1.05-.08,3.81,3.53,5.75,5.25,9.7,8.62,.08,.06,.13,.13,.18,.21,.13,.22,.16,.48,.09,.77-.07,.29-.21,.52-.42,.7-.45,.37-.85,.4-1.19,.11-.77-.66-1.15-1-1.92-1.67-1.55,1.25-2.34,1.86-3.91,3.06,.22,1.19,.32,1.79,.53,2.98,.03,.12,0,.29-.1,.5-.1,.21-.25,.38-.43,.52-.26,.19-.51,.27-.77,.23-.25-.04-.44-.18-.57-.42-.05-.1-.09-.21-.11-.35Zm-.06-11.36c.46,2.33,.69,3.49,1.12,5.83,1.15-.88,1.72-1.33,2.86-2.24-1.61-1.42-2.4-2.14-3.99-3.59Z"/>
      <path class="cls-13" d="M335.68,350.52c2.55-2.24,3.81-3.4,6.29-5.78,.2-.19,.43-.29,.69-.29,.26,0,.46,.11,.6,.31,.14,.21,.19,.47,.14,.77-.05,.3-.18,.55-.39,.76-.94,.9-1.41,1.34-2.35,2.22,2.37,3.66,3.56,5.49,5.94,9.15,.99-.92,1.49-1.39,2.47-2.33,.23-.22,.47-.33,.72-.33,.26,0,.46,.1,.6,.31,.14,.21,.18,.47,.12,.78-.06,.31-.2,.56-.42,.78-2.65,2.54-3.99,3.78-6.71,6.17-.23,.21-.48,.3-.74,.29-.26-.01-.45-.13-.59-.35s-.17-.48-.1-.78c.07-.3,.22-.55,.45-.75,1.02-.9,1.53-1.36,2.55-2.28-2.34-3.69-3.51-5.54-5.86-9.23-.97,.88-1.45,1.31-2.43,2.17-.22,.19-.46,.28-.71,.26-.25-.02-.44-.14-.57-.36-.14-.23-.18-.49-.12-.78,.06-.29,.2-.53,.41-.72Z"/>
      <path class="cls-13" d="M347.95,338.76c1.56-1.62,2.33-2.45,3.85-4.13,.47-.51,1.05-.81,1.77-.89,.72-.08,1.29,.15,1.72,.69,.16,.2,.22,.46,.19,.77-.04,.31-.15,.57-.33,.77-.25,.28-.47,.42-.65,.41-.18,0-.43-.11-.75-.32-.32-.21-.63-.15-.92,.17-1.46,1.61-2.2,2.4-3.69,3.96-.18,.19-.22,.34-.15,.45,.05,.07,.14,.12,.29,.13,4.29,.47,6.46,.63,10.87,.79,.53,.02,.95,.22,1.24,.59,.34,.43,.46,.99,.38,1.69-.08,.7-.33,1.28-.74,1.74-1.68,1.86-2.53,2.78-4.25,4.58-.57,.6-1.21,.91-1.92,.93-.71,.03-1.24-.21-1.59-.69-.4-.56-.32-1.12,.23-1.69,.21-.22,.45-.33,.7-.34,.26-.01,.45,.08,.59,.27,.11,.16,.27,.23,.46,.22,.19-.02,.38-.11,.55-.3,1.57-1.65,2.35-2.48,3.89-4.19,.17-.18,.19-.34,.11-.46-.04-.06-.14-.1-.29-.1-4.41-.2-6.58-.38-10.87-.89-.51-.06-.9-.3-1.19-.7-.33-.46-.45-1.04-.35-1.72,.09-.68,.37-1.27,.84-1.76Z"/>
      <path class="cls-13" d="M363.13,323.2c1.69,.42,2.54,.62,4.24,1,.59,.12,1.1,.41,1.53,.89,.42,.46,.72,1.04,.87,1.74,.45,2,.67,3,1.08,5.02,.24,1.1-.05,2.17-.89,3.22-.4,.5-.84,.84-1.32,1.04-.48,.2-.93,.25-1.33,.16-1.7-.41-2.55-.63-4.23-1.09-.55-.14-1.04-.48-1.47-.99-.43-.52-.7-1.11-.83-1.77-.39-2.02-.6-3.03-1.02-5.03-.22-1.1,.06-2.12,.82-3.08,.78-.97,1.61-1.34,2.53-1.11Zm-1.54,3.37c.41,1.88,.61,2.82,.99,4.71,.11,.46,.28,.83,.51,1.11,.25,.3,.57,.5,.94,.61,1.62,.42,2.44,.61,4.07,.99,.24,.08,.46-.02,.68-.29,.19-.24,.25-.5,.2-.81-.38-1.95-.58-2.92-.99-4.85-.11-.46-.29-.83-.54-1.11-.26-.29-.58-.48-.96-.56-1.61-.36-2.41-.55-4-.95-.28-.09-.52,0-.72,.24-.2,.25-.27,.55-.19,.9Z"/>
      <path class="cls-13" d="M374.46,306.62c3.84,3.56,5.76,5.34,9.6,8.9-.73,1.12-1.09,1.68-1.83,2.78-4.64-.79-6.93-1.26-11.46-2.33,2.83,2.86,4.24,4.29,7.07,7.16,.17,.18,.25,.42,.24,.74s-.12,.61-.32,.89c-.2,.28-.43,.45-.69,.52s-.48,.01-.65-.17c-3.68-3.81-5.52-5.71-9.2-9.52,.71-.98,1.06-1.47,1.76-2.46,4.51,1.07,6.79,1.53,11.41,2.32-2.89-2.74-4.34-4.11-7.23-6.85-.18-.17-.27-.41-.27-.73,0-.32,.09-.61,.27-.88,.18-.27,.39-.44,.64-.51,.25-.07,.47-.02,.66,.15Z"/>
    </g>
  </g>
</svg>